<svg xmlns="http://www.w3.org/2000/svg" xmlns:xlink="http://www.w3.org/1999/xlink" id="svg" version="1.1" viewBox="164.75 215.13 70.17 87.52"><g id="svgg"><path id="path0" d="M172.276 215.449 C 170.253 216.050,169.467 216.537,167.760 218.246 C 166.820 219.187,166.401 219.853,165.223 222.283 C 164.070 224.660,165.138 229.671,167.293 231.996 C 167.601 232.328,167.853 232.698,167.853 232.818 C 167.853 232.937,167.944 232.979,168.056 232.910 C 168.167 232.841,168.337 232.913,168.433 233.070 C 168.691 233.490,170.664 234.642,171.413 234.810 C 172.906 235.144,173.403 235.214,174.306 235.214 C 175.654 235.214,178.037 234.433,178.776 233.750 C 178.913 233.623,179.302 233.277,179.642 232.981 C 180.290 232.416,180.628 231.962,181.065 231.068 C 181.210 230.771,181.390 230.480,181.464 230.421 C 181.659 230.265,181.937 228.761,182.003 227.508 C 182.102 225.606,181.335 223.551,180.259 222.835 C 180.140 222.756,179.809 222.488,179.524 222.240 C 178.324 221.198,173.679 220.877,173.679 221.835 C 173.679 221.929,173.575 222.006,173.449 222.006 C 173.073 222.006,172.089 223.302,171.671 224.348 C 170.844 226.416,171.935 228.370,174.057 228.621 C 174.838 228.713,175.189 228.679,175.189 228.509 C 175.189 228.374,175.306 228.287,175.449 228.317 C 175.592 228.347,175.713 228.246,175.718 228.094 C 175.724 227.941,175.841 227.746,175.979 227.661 C 176.129 227.568,176.216 227.016,176.195 226.286 L 176.160 225.066 176.887 225.370 C 177.287 225.537,177.657 225.674,177.709 225.674 C 177.761 225.674,177.748 225.763,177.681 225.872 C 177.614 225.980,177.669 226.105,177.804 226.150 C 178.177 226.275,178.232 227.976,177.871 228.275 C 177.704 228.414,177.620 228.614,177.685 228.719 C 177.750 228.824,177.700 228.910,177.575 228.910 C 177.449 228.910,177.346 229.008,177.346 229.126 C 177.346 230.220,174.230 231.106,172.600 230.475 C 172.422 230.406,172.228 230.335,172.168 230.316 C 171.542 230.118,170.858 229.631,170.756 229.309 C 170.686 229.090,170.550 228.910,170.454 228.910 C 169.235 228.910,169.059 223.863,170.227 222.378 C 170.464 222.077,170.658 221.708,170.658 221.559 C 170.658 221.410,170.717 221.346,170.789 221.418 C 170.860 221.490,171.138 221.312,171.407 221.022 C 171.675 220.733,172.004 220.496,172.139 220.496 C 172.274 220.496,172.384 220.393,172.384 220.268 C 172.384 220.142,172.474 220.095,172.585 220.163 C 172.695 220.232,172.841 220.198,172.909 220.088 C 173.367 219.347,177.491 218.944,178.456 219.546 C 178.617 219.647,178.939 219.758,179.172 219.794 C 179.405 219.831,179.800 220.052,180.049 220.286 C 180.298 220.520,180.566 220.712,180.643 220.712 C 181.078 220.712,182.898 222.958,182.786 223.355 C 182.761 223.444,182.830 223.517,182.940 223.517 C 183.278 223.517,183.854 225.892,183.891 227.443 L 183.927 228.910 199.914 228.910 L 215.902 228.910 215.798 227.830 C 215.709 226.897,215.929 225.502,216.343 224.380 C 216.408 224.202,216.491 223.912,216.526 223.736 C 216.561 223.561,216.685 223.385,216.803 223.345 C 216.920 223.306,217.324 222.795,217.700 222.209 C 218.076 221.623,218.471 221.143,218.577 221.143 C 218.683 221.143,218.946 220.974,219.162 220.766 C 219.705 220.242,220.817 219.633,221.231 219.633 C 221.420 219.633,221.575 219.546,221.575 219.440 C 221.575 218.985,225.530 219.291,226.577 219.826 C 232.053 222.625,231.645 230.168,225.990 230.700 C 224.601 230.831,222.438 229.802,222.438 229.010 C 222.438 228.915,222.297 228.681,222.124 228.490 C 221.408 227.699,221.691 225.902,222.604 225.444 C 222.928 225.282,223.242 225.121,223.301 225.088 C 223.360 225.055,223.427 225.578,223.450 226.250 C 223.570 229.864,228.567 229.205,228.517 225.581 C 228.482 223.102,225.972 220.939,223.437 221.204 C 222.139 221.340,220.425 221.896,220.319 222.215 C 220.278 222.338,220.157 222.438,220.049 222.438 C 219.741 222.438,218.986 223.154,218.986 223.446 C 218.986 223.592,218.864 223.789,218.715 223.884 C 217.735 224.508,217.594 228.491,218.486 230.381 C 218.804 231.055,219.072 231.656,219.080 231.715 C 219.106 231.902,220.870 233.657,221.031 233.657 C 221.116 233.657,221.465 233.856,221.807 234.100 C 222.149 234.344,222.601 234.578,222.811 234.620 C 223.021 234.663,223.447 234.796,223.757 234.916 C 224.428 235.176,227.406 235.177,227.746 234.917 C 227.876 234.818,228.240 234.715,228.555 234.689 C 228.869 234.663,229.126 234.560,229.126 234.460 C 229.126 234.360,229.223 234.339,229.342 234.412 C 229.461 234.485,229.558 234.443,229.558 234.317 C 229.558 234.191,229.731 234.088,229.943 234.088 C 230.155 234.088,230.762 233.703,231.292 233.232 C 231.821 232.760,232.327 232.372,232.416 232.369 C 232.505 232.365,232.578 232.222,232.578 232.050 C 232.578 231.877,232.700 231.659,232.848 231.564 C 233.131 231.383,233.349 231.055,234.073 229.722 C 235.269 227.518,235.192 222.181,233.943 220.694 C 233.785 220.507,233.719 220.291,233.795 220.214 C 233.872 220.138,233.775 220.014,233.580 219.939 C 233.385 219.864,233.225 219.673,233.225 219.515 C 233.225 219.087,230.875 216.828,230.430 216.828 C 230.306 216.828,230.205 216.753,230.205 216.662 C 230.205 216.490,229.361 216.041,228.047 215.514 C 226.877 215.045,173.843 214.983,172.276 215.449 M212.945 223.087 L 212.945 224.167 199.838 224.112 C 190.741 224.073,186.744 223.986,186.772 223.827 C 186.794 223.701,186.731 223.240,186.633 222.802 L 186.453 222.006 199.699 222.006 L 212.945 222.006 212.945 223.087 M182.885 231.211 C 182.805 231.290,182.740 243.767,182.740 258.936 L 182.740 286.516 185.437 286.516 L 188.134 286.516 188.134 262.597 L 188.134 238.678 188.703 238.109 C 189.374 237.437,190.643 237.337,191.485 237.889 L 192.017 238.237 192.017 262.355 L 192.017 286.472 194.930 286.503 L 197.843 286.534 197.843 262.610 L 197.843 238.685 198.292 238.167 C 198.888 237.480,200.772 237.418,201.418 238.064 C 201.824 238.470,201.834 239.065,201.834 262.504 L 201.834 286.527 204.746 286.467 L 207.659 286.408 207.710 262.391 C 207.738 249.182,207.843 238.229,207.943 238.051 C 208.348 237.326,210.386 237.309,211.215 238.024 C 211.647 238.396,211.650 238.596,211.650 262.457 L 211.650 286.516 214.456 286.516 L 217.262 286.516 217.207 258.846 L 217.152 231.176 200.091 231.121 C 190.708 231.090,182.965 231.131,182.885 231.211 M179.138 289.097 C 178.379 289.419,178.005 292.893,178.610 294.013 L 178.872 294.498 200.143 294.498 L 221.415 294.498 221.317 292.122 C 221.235 290.129,221.152 289.686,220.804 289.372 C 220.329 288.944,180.125 288.679,179.138 289.097 M173.932 297.512 C 173.629 298.197,173.740 302.197,174.071 302.528 C 174.165 302.622,185.838 302.674,200.012 302.644 L 225.782 302.589 225.843 300.031 C 225.884 298.329,225.821 297.372,225.655 297.172 C 225.444 296.918,221.414 296.872,199.810 296.872 L 174.215 296.872 173.932 297.512 " stroke="none" fill="#9c9c9c" fill-rule="evenodd"></path><path id="path1" d="M201.830 262.783 C 201.830 275.777,201.856 281.092,201.888 274.595 C 201.919 268.099,201.919 257.468,201.888 250.971 C 201.856 244.474,201.830 249.790,201.830 262.783 M205.335 289.045 C 205.718 289.092,206.398 289.093,206.845 289.046 C 207.293 289.000,206.980 288.961,206.149 288.960 C 205.318 288.959,204.952 288.997,205.335 289.045 M209.106 289.049 C 209.902 289.090,211.261 289.090,212.126 289.049 C 212.992 289.008,212.341 288.974,210.680 288.974 C 209.018 288.974,208.310 289.007,209.106 289.049 M217.417 289.045 C 217.800 289.092,218.480 289.093,218.927 289.046 C 219.375 289.000,219.061 288.961,218.231 288.960 C 217.400 288.959,217.034 288.997,217.417 289.045 " stroke="none" fill="#a09c9c" fill-rule="evenodd"></path><path id="path2" d="M201.830 262.783 C 201.830 275.777,201.856 281.092,201.888 274.595 C 201.919 268.099,201.919 257.468,201.888 250.971 C 201.856 244.474,201.830 249.790,201.830 262.783 M205.335 289.045 C 205.718 289.092,206.398 289.093,206.845 289.046 C 207.293 289.000,206.980 288.961,206.149 288.960 C 205.318 288.959,204.952 288.997,205.335 289.045 M209.106 289.049 C 209.902 289.090,211.261 289.090,212.126 289.049 C 212.992 289.008,212.341 288.974,210.680 288.974 C 209.018 288.974,208.310 289.007,209.106 289.049 M217.417 289.045 C 217.800 289.092,218.480 289.093,218.927 289.046 C 219.375 289.000,219.061 288.961,218.231 288.960 C 217.400 288.959,217.034 288.997,217.417 289.045 " stroke="none" fill="#a09c9c" fill-rule="evenodd"></path><path id="path3" d="M201.830 262.783 C 201.830 275.777,201.856 281.092,201.888 274.595 C 201.919 268.099,201.919 257.468,201.888 250.971 C 201.856 244.474,201.830 249.790,201.830 262.783 M205.335 289.045 C 205.718 289.092,206.398 289.093,206.845 289.046 C 207.293 289.000,206.980 288.961,206.149 288.960 C 205.318 288.959,204.952 288.997,205.335 289.045 M209.106 289.049 C 209.902 289.090,211.261 289.090,212.126 289.049 C 212.992 289.008,212.341 288.974,210.680 288.974 C 209.018 288.974,208.310 289.007,209.106 289.049 M217.417 289.045 C 217.800 289.092,218.480 289.093,218.927 289.046 C 219.375 289.000,219.061 288.961,218.231 288.960 C 217.400 288.959,217.034 288.997,217.417 289.045 " stroke="none" fill="#a09c9c" fill-rule="evenodd"></path><path id="path4" d="M201.830 262.783 C 201.830 275.777,201.856 281.092,201.888 274.595 C 201.919 268.099,201.919 257.468,201.888 250.971 C 201.856 244.474,201.830 249.790,201.830 262.783 M205.335 289.045 C 205.718 289.092,206.398 289.093,206.845 289.046 C 207.293 289.000,206.980 288.961,206.149 288.960 C 205.318 288.959,204.952 288.997,205.335 289.045 M209.106 289.049 C 209.902 289.090,211.261 289.090,212.126 289.049 C 212.992 289.008,212.341 288.974,210.680 288.974 C 209.018 288.974,208.310 289.007,209.106 289.049 M217.417 289.045 C 217.800 289.092,218.480 289.093,218.927 289.046 C 219.375 289.000,219.061 288.961,218.231 288.960 C 217.400 288.959,217.034 288.997,217.417 289.045 " stroke="none" fill="#a09c9c" fill-rule="evenodd"></path></g></svg>